<?xml version="1.0" encoding="UTF-8"?>
<svg id="_图层_1" data-name="图层_1" xmlns="http://www.w3.org/2000/svg" viewBox="0 0 158.24 90.88">
  <defs>
    <style>
      .cls-1 {
        fill: #f4ea2a;
      }
    </style>
  </defs>
  <path class="cls-1" d="M71.82,43.04c4.2,1.96,10.4,1.96,14.6,0L154.35,10.71c4.69-2.19,5.22-6.04,1.19-8.59-4.03-2.55-11.1-2.84-15.79-.65l-60.62,29.05L18.5,1.66C13.81-.54,6.74-.25,2.71,2.3-1.32,4.86-.79,8.7,3.9,10.9h0l67.92,32.15ZM139.74,47.84l-60.62,28.87-60.62-28.87c-4.69-2.19-11.76-1.9-15.79.65-4.03,2.55-3.5,6.4,1.19,8.59l67.92,32.33c4.2,1.96,10.4,1.96,14.6,0l67.92-32.33c4.69-2.19,5.22-6.04,1.19-8.59-4.03-2.55-11.1-2.84-15.79-.65h0Z"/>
</svg>